<svg width="866.81006" height="813.0676" xmlns="http://www.w3.org/2000/svg">

 <g>
  <title>Layer 1</title>
  <path id="svg_1" fill="#f2f2f2" d="m836.02723,591.10614l-2.71537,21.6217l-6.73908,53.70394l-135.38272,0c1.05718,-12.03676 2.50247,-29.36207 4.04646,-48.06508c0.15218,-1.86793 0.31188,-3.74756 0.46397,-5.63886c3.87162,-47.01432 8.10823,-100.21632 8.10823,-100.21632l17.79852,3.31574l34.53207,6.42112l14.07147,2.61514l37.68114,7.01655c18.78727,3.49074 31.7102,30.69301 28.13532,59.22608l-0.00001,-0.00001z"/>
  <polygon id="svg_2" fill="#ffb6b6" points="733.6224837303162,425.51151275634766 750.2710433006287,454.64537048339844 718.2726302146912,477.3225402832031 704.6224837303162,441.51151275634766 733.6224837303162,425.51151275634766 "/>
  <circle id="svg_3" fill="#ffb6b6" r="41.24406" cy="411.82932" cx="712.42762"/>
  <path id="svg_4" fill="#2f2e41" d="m709.4662,421.04977c-3.27492,-4.9842 -1.98953,-7.59113 -4.73126,-9.42283c-0.00005,-0.00005 -1.10331,-0.7371 -8.99943,-1.15733l0,0c-1.76783,-12.72387 -3.9747,-14.26689 -3.97475,-14.26694c-2.54344,-1.77835 -6.31806,-1.20052 -8.66632,-0.11286c-4.96648,2.3004 -4.39069,7.26947 -7.73471,8.22036c-4.61947,1.31356 -13.02411,-6.09155 -13.85211,-14.56892c-0.67539,-6.91516 3.77981,-13.63146 5.54692,-13.27617c1.75207,0.35229 5.94686,-5.00298 8.2118,-4.92038c1.54677,0.05641 7.86668,-2.69052 9.56681,-2.47576c1.85668,0.23458 7.97849,3.42925 8.23359,2.69936c1.77276,-5.07201 1.25174,-6.47929 2.75595,-7.93028c2.66541,-2.57115 7.02574,-0.78067 13.86612,0.18057c14.07429,1.97776 16.5307,-2.66296 23.74347,0.48255c3.64355,1.58896 6.69229,5.8742 12.64108,14.3798c8.31932,11.89498 12.47896,17.84248 12.50565,24.77939c0.02721,7.0744 -3.3985,6.62532 -4.90327,17.09838c-1.67502,11.65826 1.88393,16.98908 -2.00412,20.77661c-3.00495,2.92729 -9.11284,3.62215 -12.32198,1.05303c-5.49439,-4.39856 1.69602,-15.0123 -4.38413,-22.76671c-3.73224,-4.75997 -11.23802,-6.87793 -14.67632,-4.52502c-3.88767,2.66043 -1.74599,10.46929 -4.47987,11.20979c-2.3411,0.63413 -5.77242,-4.58808 -6.34311,-5.45663l-0.00001,-0.00001z"/>
  <path id="svg_5" fill="#107be9" d="m805.54241,583.49149c-1.15039,19.66992 -5.71973,25.87988 -7.32031,49.10986c-0.34961,5.1001 -0.55957,11.02002 -0.55957,18.08008c0,1.7998 0.00977,3.54004 0.00977,5.24023c0,3.61963 -0.06934,7.04004 -0.49023,10.50977c-0.31934,2.77002 -0.86914,5.56006 -1.7793,8.5l-88.83008,0c-0.00977,-0.02002 -0.00977,-0.04004 -0.02051,-0.06006c-0.51953,-2.25977 -0.84961,-4.41992 -1.09961,-6.48975c-0.08008,-0.66016 -0.15039,-1.31006 -0.20996,-1.9502c-0.08008,-0.75 -0.15039,-1.48975 -0.21973,-2.21973c-0.27051,-2.91016 -0.54004,-5.66016 -1.18066,-8.29004c-0.85938,-3.63037 -2.41992,-7.05029 -5.62012,-10.3501c-1.30957,-1.3501 -2.61914,-2.3999 -3.89941,-3.31982c-0.25,-0.17041 -0.49023,-0.34033 -0.74023,-0.51025c-3.54004,-2.43018 -6.88965,-4.18018 -9.79004,-9.14014c-0.0498,-0.06982 -0.08984,-0.1499 -0.12988,-0.21973c-0.5,-0.87012 -1.7998,-3.15039 -2.74023,-6.18994c-0.99023,-3.16016 -1.58984,-7.13037 -0.50977,-11.18994c2.57031,-9.62012 12.08984,-10.58008 19.87012,-20.30029c0.83984,-1.0498 1.66992,-2.20996 2.45996,-3.5c3.51953,-5.72021 4.46973,-10.75977 5.58984,-16.75c0.17969,-0.97021 0.33984,-1.93018 0.46973,-2.85986c0.10059,-0.7002 0.19043,-1.39014 0.26074,-2.07031c0.61914,-5.70996 0.31934,-10.62988 -0.41016,-15.02979c-2.37988,-14.41016 -9.40039,-23.33008 -4.44043,-36.26025c1.56055,-4.05957 3.77051,-7.10986 6,-9.71973c4.71973,-5.53027 9.57031,-9.12012 8.73047,-16.25977c-0.85059,-7.2002 -6.31055,-8.19043 -6.91992,-14.48047c-0.31055,-3.17969 0.72949,-6.52979 2.67969,-9.81982l0,-0.00977c6.24023,-10.59033 21.82031,-20.34033 31.71973,-20.03027c1.83008,0.05029 3.4502,0.45996 4.7998,1.25c4.89062,2.87988 2.85059,9.16992 10.34082,17.99023c5.56934,6.5498 11.86914,9.16992 14.25977,10.40967c9.46973,4.94043 17.16992,19.51025 22.39941,38.14014c0.04004,0.14014 0.08008,0.27979 0.12012,0.43018c3.23047,11.66992 5.51074,24.91992 6.64062,38.35986c0.47949,5.68994 0.75977,11.41016 0.81934,17.06982c0.05078,4.52002 -0.0498,8.44043 -0.25977,11.93018l-0.00001,0.00001z"/>
  <g id="svg_6">
   <polygon id="svg_7" fill="#ffb6b6" points="739.0228743553162,650.8816223144531 737.2123274803162,655.9216613769531 736.0726790428162,659.0813293457031 733.4320540428162,666.4314270019531 730.3724837303162,674.9314270019531 710.7025618553162,674.9314270019531 714.0023665428162,666.4314270019531 715.5326399803162,662.4714660644531 718.0726790428162,655.9216613769531 722.3324446678162,644.9216613769531 739.0228743553162,650.8816223144531 "/>
   <path id="svg_8" fill="#107be9" d="m798.53264,513.98124c-0.0498,0.65039 -0.12012,1.37012 -0.19043,2.15039c-0.7793,7.93994 -2.62012,22.1499 -5.30957,38.35986c-1.41992,8.5498 -3.08008,17.66016 -4.9502,26.70996c-4.01953,19.52979 -9.01953,38.76025 -14.66992,51.3999c-1.00977,2.28027 -2.0498,4.34033 -3.11035,6.16016c-0.80957,1.39014 -1.66016,2.75977 -2.5498,4.10986c-2.87988,4.43018 -6.11035,8.63037 -9.45996,12.55029c-0.12988,0.16992 -0.28027,0.33008 -0.42969,0.5c-0.54004,0.63965 -1.10059,1.27002 -1.66016,1.8999c-2.74023,3.08984 -5.54004,5.96973 -8.25,8.60986c-3.2998,3.22021 -6.48047,6.07031 -9.33008,8.5l-31.94043,0l-0.12988,-0.06006l-4.59961,-2.04004s1.30957,-1.54004 3.5,-4.44971c0.4502,-0.59033 0.92969,-1.24023 1.4502,-1.9502c0.63965,-0.87012 1.33008,-1.83008 2.06934,-2.87012c1.54004,-2.17969 3.29004,-4.73975 5.16992,-7.63965c3.64062,-5.61035 7.79004,-12.51025 11.98047,-20.5c0.48047,-0.93018 0.96973,-1.87012 1.45996,-2.82031c0.00977,-0.02979 0.03027,-0.06006 0.04004,-0.08984c0.83008,-1.62012 1.65039,-3.29004 2.46973,-4.99023c6.9502,-14.45996 8.94043,-26.45996 9.51074,-30.34961c0.7998,-5.5 1.90918,-13.19043 1.60938,-21.65039c-0.2002,-5.57959 -1.00977,-11.47998 -2.93945,-17.33984l0,-0.00977c-0.40039,-1.22998 -0.85059,-2.45996 -1.36035,-3.68018c-0.91016,-2.18994 -1.99023,-4.3501 -3.27051,-6.47998c-5.64941,-9.37988 -10.23926,-9.77002 -13.88965,-19.99023c-1.08008,-3.02979 -3.53027,-9.86963 -2.78027,-17.08984l0,-0.00977c0.09082,-0.89014 0.24023,-1.79004 0.44043,-2.69043l0,-0.00977c0.0498,-0.25 0.12012,-0.50977 0.19043,-0.75977c0.56934,-2.20996 1.50977,-4.40039 2.93945,-6.48047c2.79004,-4.03955 6.59961,-6.43994 10.00977,-7.86963l0.01074,-0.01025c3.93945,-1.63965 7.33984,-1.98975 8,-2.0498c14.60938,-1.2998 25.93945,10.97998 32.12988,17.68994c2.38965,2.58984 4.58008,4.76025 6.58008,6.52979c15.56934,13.90039 19.83984,5.02002 20.94922,0.43018c0.16992,-0.70996 0.26074,-1.31982 0.31055,-1.72021l-0.00002,0.00001z"/>
   <path id="svg_9" fill="#107be9" d="m798.58245,513.46171c0,0.0498 -0.00977,0.21973 -0.0498,0.5c0.01953,-0.15039 0.03027,-0.30029 0.04004,-0.44043c0,-0.02979 0,-0.0498 0.00977,-0.05957l-0.00001,0z"/>
  </g>
  <path id="svg_10" fill="#e6e6e6" d="m719.16252,724.47147l-536.0498,0c-4.98047,0 -9.04004,4.0498 -9.04004,9.03027c0,4.98975 4.05957,9.03955 9.04004,9.03955l536.0498,0c4.97949,0 9.03027,-4.0498 9.03027,-9.03955c0,-4.98047 -4.05078,-9.03027 -9.03027,-9.03027z"/>
  <path id="svg_11" fill="#e6e6e6" d="m600.20256,771.15165l-298.14013,0c-4.97998,0 -9.02979,4.0498 -9.02979,9.02979s4.0498,9.04004 9.02979,9.04004l298.14014,0c4.97998,0 9.04004,-4.06006 9.04004,-9.04004s-4.06006,-9.02979 -9.04004,-9.02979l-0.00001,0z"/>
  <polygon id="svg_12" fill="#ffb6b6" points="242.76172018051147,427.42862701416016 276.5453658103943,413.21089935302734 291.03581380844116,442.9163513183594 255.53418111801147,457.4068069458008 242.76172018051147,427.42862701416016 "/>
  <polygon id="svg_13" opacity="0.1" points="242.76172018051147,427.42862701416016 276.5453658103943,413.21089935302734 291.03581380844116,442.9163513183594 255.53418111801147,457.4068069458008 242.76172018051147,427.42862701416016 "/>
  <path id="svg_14" fill="#107be9" d="m247.56444,416.10899l33.32807,38.39973s-23.18474,73.17685 -46.36949,79.69756s-65.93162,38.39973 -65.93162,38.39973l-53.61472,-34.77712l26.08284,-38.39973s63.03352,-86.21827 79.69756,-86.21827c16.66403,0 26.80736,2.89809 26.80736,2.89809l0,0.00001z"/>
  <path id="svg_15" fill="#2f2e41" d="m202.5353,666.43177l-77.58192,0l-4.90504,-6.55697l-20.02583,-26.7711l-4.60796,-6.15845s-17.38856,-31.87902 -13.76594,-60.85995c3.62262,-28.98093 41.29783,-35.50164 41.29783,-35.50164l1.55049,0l46.12313,40.52979l-2.75318,37.71872l14.60637,24.27153l20.06205,33.32807z"/>
  <polygon id="svg_16" fill="#2f2e41" points="140.84216451644897,666.4317626953125 120.04834127426147,666.4317626953125 120.04834127426147,635.6395263671875 140.84216451644897,666.4317626953125 "/>
  <path id="svg_17" fill="#f2f2f2" d="m589.33652,619.68552l-2.58651,13.41818l-6.41927,33.32807l-128.95789,0c1.00701,-7.46988 2.38371,-18.22178 3.85442,-29.82865c0.14496,-1.15922 0.29708,-2.32569 0.44195,-3.49942c3.68789,-29.17657 7.72344,-62.19314 7.72344,-62.19314l16.95386,2.05771l32.89328,3.98488l13.40368,1.62293l35.89291,4.35439c17.89569,2.16632 30.20533,19.04774 26.80011,36.75505l0.00002,0z"/>
  <path id="svg_18" fill="#2f2e41" d="m771.83669,666.43177l-69.94541,0c1.06503,-1.25341 1.66635,-1.97793 1.66635,-1.97793l20.96775,-3.46324l43.20324,-7.12937s1.97068,5.09342 4.10808,12.57055l-0.00001,-0.00001z"/>
  <polygon id="svg_19" fill="#a0616a" points="475.14726400375366,441.92012786865234 505.56532430648804,484.93809509277344 452.50624227523804,486.52264404296875 446.81083822250366,446.0958480834961 475.14726400375366,441.92012786865234 "/>
  <polygon id="svg_20" opacity="0.1" points="475.14726400375366,441.92012786865234 505.56532430648804,484.93809509277344 452.50624227523804,486.52264404296875 446.81083822250366,446.0958480834961 475.14726400375366,441.92012786865234 "/>
  <path fill="#a0616a" d="m325.13832,531.05025c-3.90299,-11.25913 -12.8761,-18.37174 -20.04107,-15.88668c-7.16497,2.48507 -9.80758,13.62542 -5.90169,24.88804c1.49853,4.52036 4.05781,8.61612 7.46374,11.94459l17.13959,47.49655l22.1173,-8.51819l-19.24476,-45.91882c0.61482,-4.72396 0.08913,-9.52647 -1.53311,-14.0055l0,0.00001z" id="uuid-ae755ff6-bb09-410e-86b1-7d1b81a37005-143"/>
  <path id="svg_21" fill="#ccc" d="m531.03962,509.13054l-0.04173,43.84082l-4.07898,16.19317l-8.39004,33.30631l-6.10768,30.63286l-4.55003,22.82248l-1.62293,8.15089c-1.22449,0.81871 -2.44173,1.60117 -3.65888,2.3547l-105.97603,0c-6.02079,-3.61536 -9.38979,-6.42652 -9.38979,-6.42652c0,0 1.66639,-1.56499 3.57189,-4.07907c3.21689,-4.2457 7.10757,-11.2011 4.72391,-17.84501c-0.49992,-1.39112 -0.63033,-3.08648 -0.47821,-4.97747c0.97088,-12.47627 14.05577,-33.57447 14.05577,-33.57447l-2.70971,-31.31387l-1.18823,-13.72243l8.37769,-66.9101l27.30728,-15.87424l4.71449,-0.45614l46.53611,-2.51407l19.23434,1.10845l0.87664,0.23915l18.79409,39.04457l0.00003,-0.00001z"/>
  <g id="svg_22">
   <polygon id="svg_23" fill="#ffb6b6" points="533.1062483787537,666.4317626953125 509.92152547836304,666.4317626953125 508.89994955062866,655.9261779785156 508.87819051742554,655.716064453125 515.4423995018005,655.266845703125 532.5194563865662,654.1003723144531 532.8164534568787,660.3891906738281 533.0483260154724,665.2146301269531 533.1062483787537,666.4317626953125 "/>
   <path id="svg_24" fill="#ccc" d="m538.81374,519.73032l9.73934,57.14315l-7.948,56.23024l-1.23891,8.75221l-2.18807,15.45405l-0.67376,4.75291l0.02176,0.51438l0.16663,3.85451l-27.53188,0l-1.01444,-10.50559l-0.08685,-0.94192l-2.07221,-21.51831l-0.03617,-0.36226l-4.39782,-45.63046l8.62176,-32.98031l0.63767,-2.42722l0,-0.00716l3.75119,-56.46939l-2.90535,-25.66256l-0.02892,-0.23915c0.05793,0.03626 0.1087,0.07252 0.16663,0.1087c0.15221,0.09419 0.30433,0.18838 0.4492,0.28983c16.92485,10.73748 27.01025,29.57509 26.56821,49.64435l-0.00001,0z"/>
  </g>
  <path id="svg_25" fill="#ccc" d="m423.4401,498.53268l-10.58745,-10.95064s-22.66445,10.21757 -23.79416,15.88619c-1.12971,5.66862 -41.14649,88.92555 -41.14649,88.92555l-17.40981,-46.49871l-22.66197,15.13029s18.1839,72.19186 35.18976,75.58099s74.00173,-85.44603 74.00173,-85.44603l6.40838,-52.62764l0.00001,0z"/>
  <path id="svg_26" fill="#e6e6e6" d="m853.33245,632.60136l-824.47998,0c-11.66992,0 -21.16016,9.5 -21.16016,21.16992s9.49023,21.16016 21.16016,21.16016l824.47998,0c11.66992,0 21.16992,-9.48975 21.16992,-21.16016s-9.5,-21.16992 -21.16992,-21.16992z"/>
  <path id="svg_27" fill="#3f3d56" d="m526.21444,568.09361l-1.60291,74.80242c-0.15517,7.24107 -6.06962,13.03015 -13.31236,13.03015l-137.60256,0c-7.07149,0 -12.90955,-5.52763 -13.29556,-12.58857l-4.08931,-74.80242c-0.41702,-7.62814 5.65604,-14.04226 13.29556,-14.04226l143.29478,0c7.46556,0 13.4723,6.13683 13.31236,13.60068z"/>
  <circle id="svg_28" fill="#ffb6b6" r="32.92181" cy="412.56339" cx="304.0771"/>
  <polygon id="svg_29" fill="#ffb6b6" points="249.01347494125366,498.7046356201172 252.6360945701599,537.8289031982422 277.2698836326599,637.0885925292969 255.9879927635193,644.5477600097656 220.0325484275818,536.3798522949219 215.06642293930054,492.908447265625 249.01347494125366,498.7046356201172 "/>
  <path id="svg_30" fill="#3f3d56" d="m239.21444,568.09361l-1.60291,74.80242c-0.15517,7.24107 -6.06962,13.03015 -13.31236,13.03015l-137.60256,0c-7.07149,0 -12.90955,-5.52763 -13.29556,-12.58857l-4.08931,-74.80242c-0.41702,-7.62814 5.65604,-14.04226 13.29556,-14.04226l143.29478,0c7.46556,0 13.4723,6.13683 13.31236,13.60068z"/>
  <ellipse id="svg_31" fill="#ffb6b6" ry="11.5" rx="26" cy="644.93177" cx="281.19234"/>
  <path id="svg_32" fill="#107be9" d="m197.93459,504.68624l14.85273,-79.15844s41.29783,-5.79619 42.74687,7.96976s-1.03544,81.04198 -1.03544,81.04198l-56.56416,-9.85329l0,-0.00001z"/>
  <path id="svg_33" fill="#2f2e41" d="m290.78753,417.73984s20.36536,-7.26838 28.95593,-11.17911c8.59056,-3.91073 25.65708,23.36637 26.03673,8.96042c0.37965,-14.40595 -5.51755,-20.44717 -5.51755,-20.44717c0,0 -1.4726,-31.51507 -33.2233,-27.57494c0,0 6.98375,-15.76734 -15.94076,-18.20547c-22.92451,-2.43813 -58.58934,52.92097 -55.39531,61.19409c3.19403,8.27312 7.02295,15.11285 -2.03888,23.95865c-9.06183,8.8458 -26.03033,58.76917 -13.11998,72.20319c12.91035,13.43402 13.7575,19.26357 4.91188,27.62122c-8.84562,8.35765 -29.75425,26.53032 -7.14719,29.68515c22.60706,3.15483 -2.06828,0.79851 14.7856,-14.0263c16.85389,-14.82481 41.44742,-14.21933 32.26457,-38.00455c-9.18284,-23.78522 6.77112,-57.86925 4.77485,-63.03995c-1.99627,-5.1707 4.4726,-38.00496 4.4726,-38.00496c0,0 15.05504,-2.21189 16.1808,6.85974l0.00001,-0.00001z"/>
  <g id="svg_34">
   <circle id="svg_35" fill="#a0616a" r="35.83777" cy="421.65268" cx="458.88335"/>
   <path id="svg_36" fill="#2f2e41" d="m461.74352,373.4713c-1.037,0.60534 -2.42604,-0.31053 -2.75855,-1.46432c-0.33251,-1.1538 0.05482,-2.37882 0.43892,-3.51648l1.93363,-5.72716c1.37137,-4.06183 2.82687,-8.26559 5.79693,-11.35717c4.48283,-4.66624 11.6071,-5.85331 18.02037,-4.99332c8.2359,1.1044 16.36189,5.56405 20.19135,12.93866c3.82945,7.37462 2.19911,17.66485 -4.72046,22.26586c9.8619,11.30338 13.2996,23.9006 12.7568,38.89155c-0.5428,14.99095 -16.87927,28.78752 -27.53282,39.34806c-2.37913,-1.4422 -4.54204,-8.20095 -3.23373,-10.65626c1.3083,-2.45531 -0.5662,-5.29986 1.05409,-7.56146c1.62029,-2.2616 2.97587,1.33954 1.33779,-0.90922c-1.03366,-1.41901 3.00067,-4.68353 1.46421,-5.53283c-7.43161,-4.10794 -9.9033,-13.37111 -14.57083,-20.46464c-5.62991,-8.55611 -15.26549,-14.35039 -25.46249,-15.31167c-5.61717,-0.52953 -11.55014,0.42955 -16.15432,3.69062c-4.60418,3.26106 -7.5849,9.08853 -6.51724,14.62867c-2.76507,-2.80756 -4.14147,-6.92204 -3.62233,-10.82826c0.51914,-3.90621 2.92243,-7.51837 6.32483,-9.50626c-2.06881,-6.84142 -0.29652,-14.71105 4.50527,-20.00518c4.80179,-5.29413 24.28048,-4.39244 31.29074,-2.99911l-0.54217,-0.93008l0.00001,0z"/>
   <path id="svg_37" fill="#2f2e41" d="m462.83218,399.62859c9.28487,1.0023 15.9888,9.04506 21.64971,16.47254c3.26282,4.28103 6.68059,9.00871 6.59868,14.39076c-0.08282,5.4414 -3.72095,10.10859 -5.45967,15.26538c-2.84199,8.42894 -0.07214,18.45744 6.69308,24.23289c-6.68479,1.26852 -13.91123,-3.74373 -15.06525,-10.44924c-1.34341,-7.80603 4.57394,-15.34005 3.87313,-23.22978c-0.61741,-6.95094 -6.09506,-12.30052 -10.75187,-17.49772c-4.65681,-5.19721 -9.03036,-12.09377 -6.88799,-18.73508l-0.64983,-0.44975l0.00001,0z"/>
  </g>
  <g id="svg_38">
   <path fill="#ffb6b6" d="m601.63969,637.13119c-9.19677,5.23093 -13.95249,14.21631 -10.62254,20.06865c3.32996,5.85234 13.48327,6.3548 22.68262,1.12078c3.70344,-2.04037 6.86441,-4.93798 9.21841,-8.4504l38.6872,-22.65576l-11.01865,-17.92815l-36.96889,24.23796c-4.22349,0.22844 -8.33082,1.46525 -11.97815,3.60692z" id="uuid-aec20554-f6ec-4c5b-9d97-717cd04239bf-144"/>
   <path id="svg_39" fill="#107be9" d="m732.62701,470.99468c-1.15613,-0.45818 -11.30029,-4.29973 -20.56133,0.77222c-10.63836,5.8263 -12.28141,19.12643 -12.85772,23.79133c-1.33125,10.77601 2.59074,13.19133 3.41866,24.10068c1.54899,20.4102 5.63336,-2.8739 -0.88939,6.44247c-2.2578,3.22481 -25.31723,53.19804 -38.03446,62.98648c-24.73342,19.03731 -40.43943,32.44418 -40.43943,32.44418l17.93045,19.47744s28.33331,-7.54935 53.37617,-23.81018c25.68825,-16.67995 38.53244,-25.0199 48.46938,-41.33509c0.85574,-1.40497 21.33113,-36.17595 10.33482,-74.6244c-2.50819,-8.76995 -7.10385,-24.83851 -20.74714,-30.24513l-0.00001,0z"/>
  </g>
  <path id="svg_40" fill="#3f3d56" d="m825.21444,568.09361l-1.60291,74.80242c-0.15517,7.24107 -6.06962,13.03015 -13.31236,13.03015l-137.60256,0c-7.07149,0 -12.90955,-5.52763 -13.29556,-12.58857l-4.08931,-74.80242c-0.41702,-7.62814 5.65604,-14.04226 13.29556,-14.04226l143.29478,0c7.46556,0 13.4723,6.13683 13.31236,13.60068z"/>
 </g>
</svg>